<?xml version="1.0" encoding="UTF-8"?>
<svg id="OBJECTS" xmlns="http://www.w3.org/2000/svg" viewBox="0 0 879.9 623.96">
  <defs>
    <style>
      .cls-1 {
        fill: #eba58e;
      }

      .cls-2 {
        fill: #fbeed1;
      }

      .cls-3 {
        fill: #fff;
      }

      .cls-4 {
        fill: #a9bff9;
      }

      .cls-5 {
        fill: #e78882;
      }

      .cls-6 {
        fill: #c85647;
      }

      .cls-7 {
        fill: #222;
      }

      .cls-8 {
        fill: #6a3649;
      }

      .cls-9 {
        fill: #fbfdff;
      }

      .cls-10 {
        fill: #e36f5f;
      }

      .cls-11 {
        fill: #3652a8;
      }

      .cls-12 {
        fill: #d8e3fa;
      }

      .cls-13 {
        fill: #8fa8e2;
      }

      .cls-14 {
        fill: #4b4949;
      }

      .cls-15 {
        fill: #f2c9ad;
      }

      .cls-16 {
        fill: #4c82e0;
      }

      .cls-17 {
        fill: #809bd6;
      }

      .cls-18 {
        fill: none;
      }

      .cls-19 {
        fill: #2f4d7c;
      }

      .cls-20 {
        fill: #d4e0fc;
      }
    </style>
  </defs>
  <g>
    <g>
      <path class="cls-4" d="m785.97,593.23H65.86c-24.83-52.71-50.82-106.99-56.92-164.57-6.09-57.58,9.48-120.32,54.42-158.79,47.61-40.76,116.23-46.49,179.59-52.98,63.36-6.49,132.83-19.1,172.19-67.32,16.58-20.31,26.13-45.26,42.54-65.7,42.28-52.68,124.8-64.33,188.77-39.04,63.98,25.29,110.85,80.34,141.67,139.93,63.66,123.06,56.15,283-2.17,408.48Z"/>
      <path class="cls-4" d="m327.75,160.99c-30.74,17.79-68.19,24.57-103.54,18.73-25.62-4.23-52.28-17.17-61.24-40.65-7.6-19.92-.23-43.01,13.99-59.23,14.21-16.22,34.28-26.62,54.62-34.81,26.81-10.81,55.94-18.55,84.78-15.03,26.68,3.25,70,24.14,72.22,54.12,2.26,30.5-36.7,62.92-60.82,76.88Z"/>
      <path class="cls-4" d="m76.6,124.8c-10.59,7.85-17.46,20.52-18.26,33.69-.55,9.13,2.15,19.06,9.41,24.62,6,4.6,14.15,5.51,21.62,4.34,14.63-2.29,27.81-12.32,33.92-25.81,16.15-35.62-16.28-59.39-46.69-36.84Z"/>
    </g>
    <ellipse class="cls-13" cx="439.95" cy="595.78" rx="439.95" ry="28.18"/>
    <g>
      <g>
        <g>
          <g>
            <g>
              <polygon class="cls-17" points="688.34 425.66 679.8 425.66 679.8 447.66 688.34 443.13 688.34 425.66"/>
              <polygon class="cls-9" points="679.8 447.66 679.8 595.78 688.34 595.78 688.34 443.13 679.8 447.66"/>
            </g>
            <g>
              <polygon class="cls-17" points="602.55 425.66 594.01 425.66 594.01 447.66 602.55 443.13 602.55 425.66"/>
              <polygon class="cls-12" points="594.01 447.66 594.01 583.01 602.55 583.01 602.55 443.13 594.01 447.66"/>
            </g>
            <g>
              <polygon class="cls-17" points="795.07 425.66 786.54 425.66 786.54 447.66 795.07 443.13 795.07 425.66"/>
              <polygon class="cls-9" points="786.54 447.66 786.54 595.78 795.07 595.78 795.07 443.13 786.54 447.66"/>
            </g>
            <g>
              <polygon class="cls-17" points="709.28 425.66 700.74 425.66 700.74 447.66 709.28 443.13 709.28 425.66"/>
              <polygon class="cls-12" points="700.74 447.66 700.74 583.01 709.28 583.01 709.28 443.13 700.74 447.66"/>
            </g>
          </g>
          <g>
            <path class="cls-10" d="m719.14,401.14h79.5l37.45-171.66c3.56-16.33,18.02-27.98,34.74-27.98h-111.37c-16.72,0-31.18,11.65-34.74,27.98l-37.45,171.66h-79.5c-18.9,0-34.22,15.32-34.22,34.22h0s99.1,0,99.1,0h12.27c0-18.9,15.32-34.22,34.22-34.22Z"/>
            <path class="cls-6" d="m836.08,229.48l-37.45,171.66h-79.5c-18.9,0-34.22,15.32-34.22,34.22h0s92.95,0,92.95,0h17.53c14.25,0,26.57-9.93,29.61-23.85l45.81-210.01c-16.72,0-31.18,11.65-34.74,27.98Z"/>
          </g>
        </g>
        <g>
          <g>
            <path class="cls-16" d="m656.96,159.76c48.35,8.75,96.22,67.95,112.6,119.83,4.19,13.29,3.52,27.63-1.88,40.47h0l-79.33,10.7-40.21-5.35-30.2-54.37-10.01-52.57,49.05-58.71Z"/>
            <polygon class="cls-11" points="646.46 172.33 607.91 218.47 617.93 271.04 648.13 325.41 680.76 329.75 680.76 190.88 646.46 172.33"/>
            <path class="cls-7" d="m704.07,271.1c-.14,0-.27-.05-.37-.16-.19-.21-.18-.53.02-.72,8.55-8.06,14.25-19.37,15.62-31.04.03-.28.29-.48.57-.45.28.03.48.29.45.57-1.4,11.9-7.21,23.45-15.93,31.67-.1.09-.23.14-.35.14Z"/>
          </g>
          <g>
            <path class="cls-15" d="m532.8,168.84c6.24,16.94,18.9,34.17,18.9,34.17l-32.71,97.27c-5.65,16.81,5.28,34.64,22.83,37.23h0c13.28,1.96,26.12-5.63,30.82-18.21l20.77-55.68-25.85-7.13.9-47.55v-12.46s-26.16-32.98-26.16-32.98l-9.51,5.35Z"/>
            <polygon class="cls-11" points="593.41 263.61 567.57 256.48 568.46 196.47 593.41 209.54 593.41 263.61"/>
            <polygon class="cls-7" points="567.66 268.37 567.57 256.48 593.41 263.61 592.42 266.27 567.66 268.37"/>
          </g>
          <g>
            <polygon class="cls-1" points="602.03 216.37 619.74 222.69 625.73 183.14 606.19 183.51 602.03 216.37"/>
            <path class="cls-7" d="m617.33,212.38c2.72-5.63,2.82-12.28,1.28-18.34-.95-3.74-2.48-7.28-4.31-10.68l-8.11.15-4.16,32.86,9.18,3.27c2.59-1.85,4.73-4.39,6.12-7.26Z"/>
          </g>
          <g>
            <g>
              <g>
                <path class="cls-7" d="m562.18,553.12c-.72-2.5-1.27-5.05-1.66-7.62l-2.54-16.86h-31.86l-2.81,9.58c-2.31,7.88-7.98,14.33-15.5,17.64l-11.86,5.22c-6.02,2.65-10.81,7.3-13.67,13.02h82.06c.51-7.05-.21-14.15-2.16-20.98Z"/>
                <path class="cls-3" d="m482.28,574.09c-1.38,2.76-2.32,5.76-2.73,8.91h83.56l.49-2.76c.36-2.04.6-4.09.74-6.15h-82.06Z"/>
              </g>
              <path class="cls-7" d="m524.14,535.37c9.11,11.98,29.74,6.74,34.86,0l-1.01-6.74h-31.86l-1.98,6.74Z"/>
            </g>
            <g>
              <path class="cls-14" d="m648.13,325.41l-97.13,8.62c-23.79,2.11-41.68,22.6-40.58,46.45l7.08,153.05c30.02,9.8,54.08-3.12,54.08-3.12l-.89-129.69,103.84,3.12,13.82-73.09-40.21-5.35Z"/>
              <polygon class="cls-7" points="570.69 400.73 570.69 371.36 584.24 401.14 570.69 400.73"/>
            </g>
          </g>
          <path class="cls-8" d="m619.56,177.42c4.25-14.17,4.18-29.6-.19-43.72-1.31-4.24-3.03-8.42-5.74-11.94-2.71-3.52-6.5-6.35-10.85-7.24-4.35-.89-9.67.33-12.55,3.71-4.57-6.5-12.15-10.79-20.07-11.36-7.93-.57-16.04,2.59-21.5,8.37-4.04,4.28-6.55,9.73-9.54,14.8-2.99,5.07-6.77,10.05-12.2,12.33-3.37,1.42-7.63,2.05-9.27,5.33-1.45,2.9.14,6.57,2.72,8.53,2.58,1.96,5.44,2.79,8.63,3.4-2.39,1.74-4.77,3.65-6.14,6.27-1.37,2.62-1.46,6.12.53,8.3,1.55,1.7,3.98,2.26,6.26,2.61,5.09.79,9.9.75,15.03.35,12.44-.97,24.77,7.21,37.23,6.59,12.46-.62,25.54-3.31,37.64-6.33Z"/>
          <path class="cls-1" d="m544.69,177.16l2.88,4.89c7.92,13.47,18.17,25.42,30.26,35.32h0c6.83,5.59,16.22,6.88,24.31,3.35h0c7.82-3.42,13.18-10.8,14-19.29l.05-.54c.85-8.77-.31-17.63-3.39-25.89h0c-3.7-2.74-8.1-13.15-8.1-13.15-12.26.22-14.19-7.81-14.19-7.81-9.36,11.82-34.61,22.37-45.83,23.11Z"/>
          <path class="cls-7" d="m592.7,223.21c-5.44,0-10.8-1.86-15.19-5.45-12.18-9.96-22.4-21.89-30.38-35.45l-2.88-4.9c-.14-.24-.06-.56.18-.7.24-.14.55-.06.7.18l2.88,4.89c7.92,13.46,18.06,25.3,30.14,35.18,6.72,5.5,15.83,6.75,23.79,3.28.26-.11.56,0,.67.26.11.26,0,.56-.27.67-3.11,1.36-6.39,2.02-9.65,2.02Z"/>
          <g>
            <path class="cls-1" d="m617.2,163.57c1.65-1.3,3.64-2.25,5.74-2.36,2.1-.12,4.3.69,5.58,2.36,1.81,2.36,1.42,5.7.65,8.58-.78,2.9-1.85,5.72-3.19,8.4-.88,1.76-1.91,3.5-3.41,4.78-1.5,1.28-3.54,2.06-5.46,1.64-3.97-.87-5.41-8.07-5.43-11.49-.03-4.51,1.93-9.09,5.51-11.9Z"/>
            <path class="cls-5" d="m618.2,183.51c-.11,0-.22-.01-.32-.03-.95-.21-2.6-4.25-2.62-8.03-.02-3.57,1.57-7.05,4.14-9.07,1.24-.97,2.57-1.54,3.74-1.61h.2c.98,0,1.91.38,2.36.97.73.95.74,2.85.04,5.49-.71,2.66-1.7,5.26-2.93,7.72-.65,1.29-1.46,2.74-2.54,3.67-.64.55-1.43.89-2.06.89Z"/>
          </g>
          <g>
            <path class="cls-15" d="m605.45,205.53l12.48,65.51,2.67-25.4,45.9,8.47-7.86,59.39c-2.39,18.04-17.77,31.53-35.97,31.53h0c-19.55,0-35.59-15.49-36.27-35.03l-3.21-92.43c-19.44-13.71-27.76-30.32-31.01-39.07-1.28-3.45.03-7.31,3.11-9.3l.08-.05-.27-1.03c-.7-2.74.7-5.58,3.3-6.68l1.42-.6-.11-.34c-.78-2.49.5-5.15,2.93-6.09h0c2.17-.84,4.63-.07,5.92,1.87l.47.7,3.08-1.7c2.4-1.32,5.43-.62,6.99,1.64,10.75,15.48,18.45,29.62,18.45,29.62.75-4.02.54-7.73,0-10.76-.83-4.72,2.08-9.29,6.68-10.63h0c8.47,17.23,1.19,40.41,1.19,40.41Z"/>
            <path class="cls-7" d="m622.67,345.53c-19.93,0-36.08-15.6-36.77-35.52l-3.2-92.18c-19.42-13.77-27.75-30.44-30.98-39.17-1.33-3.6-.06-7.57,3.09-9.76l-.18-.68c-.77-3,.74-6.06,3.6-7.28l1-.42c-.79-2.7.63-5.59,3.27-6.62,2.41-.93,5.09-.09,6.53,2.06l.21.31,2.67-1.47c2.64-1.46,5.93-.69,7.65,1.79,8.78,12.65,15.6,24.53,17.76,28.38.39-2.98.32-6.04-.23-9.14-.88-4.97,2.15-9.79,7.04-11.21.23-.06.49.04.6.26,8.14,16.56,1.81,38.79,1.25,40.66l19.6,102.91c.05.28-.13.54-.4.6-.27.05-.54-.13-.6-.41l-19.63-103.03c-.02-.08-.01-.17.01-.25.07-.23,7.01-22.83-.97-39.64-4.15,1.42-6.67,5.61-5.91,9.92.66,3.72.66,7.4,0,10.95-.04.21-.21.38-.42.41-.21.03-.43-.07-.53-.26-.08-.14-7.81-14.3-18.42-29.58-1.42-2.05-4.14-2.69-6.33-1.48l-3.08,1.7c-.24.13-.52.06-.67-.16l-.47-.7c-1.17-1.75-3.35-2.44-5.31-1.68-2.17.84-3.33,3.25-2.63,5.47l.11.34c.08.25-.05.52-.29.62l-1.42.6c-2.38,1.02-3.65,3.57-3.01,6.09l.27,1.03c.05.21-.03.44-.22.56-3,1.94-4.19,5.51-2.99,8.75,3.21,8.65,11.48,25.19,30.82,38.83.13.09.21.24.22.4l3.21,92.43c.67,19.37,16.38,34.53,35.75,34.53,17.87,0,33.12-13.36,35.47-31.08l4.85-36.67c.04-.28.27-.48.57-.44.28.04.47.29.44.57l-4.85,36.67c-2.41,18.23-18.09,31.97-36.48,31.97Z"/>
            <path class="cls-7" d="m565.04,189.85c-.15,0-.3-.07-.41-.2-.06-.07-5.75-7.64-9.82-20.3-.09-.27.06-.56.33-.64.27-.09.55.06.64.33,4.01,12.48,9.6,19.92,9.66,20,.17.22.13.54-.1.72-.09.07-.2.1-.31.1Z"/>
            <path class="cls-7" d="m571.28,184.29c-.17,0-.33-.08-.43-.24-.08-.13-8.24-13.18-11.49-23.08-.09-.27.06-.56.32-.64.28-.09.56.06.64.32,3.21,9.78,11.31,22.73,11.39,22.86.15.24.08.55-.16.7-.08.05-.18.08-.27.08Z"/>
            <path class="cls-7" d="m580.57,178.56c-.19,0-.37-.1-.46-.28-.05-.1-5.2-10.5-11.5-21.06-.14-.24-.07-.56.18-.7.24-.14.55-.07.7.18,6.33,10.59,11.49,21.03,11.54,21.13.12.25.02.56-.23.68-.07.04-.15.05-.23.05Z"/>
            <polygon class="cls-7" points="620.6 245.64 666.5 254.11 665.02 265.29 618.53 265.29 620.6 245.64"/>
            <path class="cls-16" d="m615.26,252.32l56,11.59,9.51-73.03c1.97-15.16-8.66-29.06-23.81-31.12h0c-15.05-2.05-28.96,8.36-31.23,23.38l-10.47,69.19Z"/>
            <path class="cls-7" d="m671.26,264.42s-.07,0-.1-.01l-2.97-.61c-.27-.06-.45-.33-.4-.6.06-.28.32-.46.6-.4l2.43.5,9.44-72.48c.7-5.4-.21-10.82-2.62-15.67-.13-.25-.02-.56.23-.68.25-.12.56-.02.68.23,2.51,5.03,3.45,10.66,2.72,16.26l-9.51,73.03c-.02.14-.1.27-.21.35-.09.06-.19.09-.29.09Z"/>
            <path class="cls-7" d="m615.26,252.83s-.05,0-.08,0c-.28-.04-.47-.3-.43-.58l8.26-54.61c.04-.28.28-.48.58-.43.28.04.47.3.43.58l-8.26,54.61c-.04.25-.26.43-.5.43Z"/>
          </g>
          <g>
            <g>
              <g>
                <path class="cls-7" d="m622.53,568.6c-1.97-6.4-2.97-13.06-2.97-19.76v-9.21h-34.46l-1.85,7.69c-2.39,9.92-9.35,18.11-18.75,22.07h0c-7.74,3.26-13.78,9.37-17.02,16.88h77.95c-.19-5.99-1.13-11.94-2.89-17.68Z"/>
                <path class="cls-3" d="m547.47,586.28c-1.13,2.61-1.92,5.39-2.32,8.28l-.17,1.22h80.52v-7.43c0-.69-.06-1.39-.08-2.08h-77.95Z"/>
              </g>
              <path class="cls-7" d="m583.25,547.32c10.91,15.63,30.67,10.28,36.32,1.51v-9.21h-34.46l-1.85,7.69Z"/>
            </g>
            <g>
              <path class="cls-14" d="m767.67,320.06l-139.36,18.79c-23.68,3.19-41.78,22.72-43.16,46.57l-9.11,157.02c25.4,16.04,57.49,3.57,57.49,3.57l11.14-142.17h71.37c30.55,0,54.83-25.65,53.15-56.16l-1.52-27.63Z"/>
              <path class="cls-7" d="m644.67,403.85l2.55-32.49h0c5.26,6.13,7.25,14.41,5.35,22.26h0c-.52,2.17,1,4.3,3.22,4.51l60.26,5.72h-71.37Z"/>
              <path class="cls-7" d="m582.85,425.5s-.02,0-.03,0c-.28-.02-.5-.26-.48-.54l2.29-39.56c1.4-24.05,19.73-43.83,43.6-47.05l39.98-5.39c.27-.06.54.16.57.44.04.28-.16.54-.44.57l-39.98,5.39c-23.39,3.15-41.35,22.54-42.72,46.1l-2.3,39.56c-.02.27-.24.48-.51.48Z"/>
              <path class="cls-7" d="m752.87,389.56c-.13,0-.27-.05-.37-.16-.2-.2-.19-.53.02-.72,11.12-10.66,17.01-25.59,16.16-40.96l-1.52-27.63c-.01-.28.2-.52.48-.54.26-.04.52.2.54.48l1.52,27.63c.86,15.67-5.15,30.89-16.48,41.75-.1.09-.23.14-.35.14Z"/>
              <path class="cls-7" d="m638.7,480.48s-.03,0-.04,0c-.28-.02-.49-.27-.47-.55l8.51-108.61c.02-.28.22-.51.55-.47.28.02.49.27.47.55l-8.51,108.61c-.02.27-.24.47-.51.47Z"/>
            </g>
          </g>
          <path class="cls-7" d="m566.92,300.65h0c-.28,0-.51-.24-.5-.52l1.15-77.46c0-.28.23-.5.51-.5h0c.28,0,.51.24.5.52l-1.15,77.46c0,.28-.23.5-.51.5Z"/>
          <polygon class="cls-18" points="680.76 329.75 680.76 329.75 648.13 325.41 680.76 329.75"/>
        </g>
      </g>
      <g>
        <g>
          <g>
            <g>
              <polygon class="cls-17" points="206.4 425.66 214.94 425.66 214.94 447.66 206.4 443.13 206.4 425.66"/>
              <polygon class="cls-9" points="214.94 447.66 214.94 595.78 206.4 595.78 206.4 443.13 214.94 447.66"/>
            </g>
            <g>
              <polygon class="cls-17" points="292.2 425.66 300.74 425.66 300.74 447.66 292.2 443.13 292.2 425.66"/>
              <polygon class="cls-12" points="300.74 447.66 300.74 583.01 292.2 583.01 292.2 443.13 300.74 447.66"/>
            </g>
            <g>
              <polygon class="cls-17" points="99.67 425.66 108.21 425.66 108.21 447.66 99.67 443.13 99.67 425.66"/>
              <polygon class="cls-9" points="108.21 447.66 108.21 595.78 99.67 595.78 99.67 443.13 108.21 447.66"/>
            </g>
            <g>
              <polygon class="cls-17" points="185.46 425.66 194 425.66 194 447.66 185.46 443.13 185.46 425.66"/>
              <polygon class="cls-12" points="194 447.66 194 583.01 185.46 583.01 185.46 443.13 194 447.66"/>
            </g>
          </g>
          <g>
            <path class="cls-10" d="m175.61,401.14h-79.5l-37.45-171.66c-3.56-16.33-18.02-27.98-34.74-27.98h111.37c16.72,0,31.18,11.65,34.74,27.98l37.45,171.66h79.5c18.9,0,34.22,15.32,34.22,34.22h0s-99.1,0-99.1,0h-12.27c0-18.9-15.32-34.22-34.22-34.22Z"/>
            <path class="cls-6" d="m58.66,229.48l37.45,171.66h79.5c18.9,0,34.22,15.32,34.22,34.22h0s-92.95,0-92.95,0h-17.53c-14.25,0-26.57-9.93-29.61-23.85L23.92,201.5c16.72,0,31.18,11.65,34.74,27.98Z"/>
          </g>
        </g>
        <g>
          <path class="cls-7" d="m321.07,115.51c5.9-4.12,11.61-8.75,15.63-14.73,4.02-5.97,6.19-13.5,4.49-20.49-1.7-6.99-7.87-13.06-15.07-13.33-1.61-.06-7.96-6.73-10.07-7.87-4.04-2.19-8.54-4.37-12.91-5.91-10.16-3.57-21.43-4.04-31.8-1.09-14.91,4.25-27.66,15.52-33.71,29.8-8.1,19.13-4.56,42.35-15.63,59.92-14.37,22.81-48.08,27.75-61.45,51.15-5.46,9.55-6.65,21.45-3.18,31.89,3.16,9.54,9.79,14.64,16.32,21.68,3.78,4.08,10.52,14.05,17.3,12.58,5.41-1.18,14.91-17.42,18.45-21.82,6.13-7.61,12.15-15.31,18.17-23.01,23.99-30.67,48.06-62.02,78.15-87.05,4.94-4.11,10.04-8.04,15.31-11.73Z"/>
          <g>
            <g>
              <g>
                <path class="cls-15" d="m422.2,572.22c-.11-.07-.23-.14-.34-.21l-13.03-9.4-18.14-51.23-34.79-3.53,22.47,57.83-2.32,13.76h41.83c.77-2.73,2.3-5.21,4.31-7.21Z"/>
                <path class="cls-7" d="m434.24,575.76h0c-4.27,0-8.45-1.24-12.04-3.54-2.01,2-3.54,4.48-4.31,7.21h-41.83l-1.9,11.24h81.11c-3.1-8.82-11.46-14.92-21.04-14.92Z"/>
                <path class="cls-2" d="m455.27,590.68h-81.11l-.86,5.1h83.23l-.39-2c-.21-1.07-.51-2.1-.87-3.11Z"/>
              </g>
              <path class="cls-7" d="m395.74,525.62c-4.57,16.77-21.57,29.22-21.57,29.22l-18.25-46.99,34.79,3.53,5.04,14.24Z"/>
            </g>
            <path class="cls-14" d="m332.48,549.46c33.76,7.46,45.93-20.81,73.02-32.58l-34.58-120.51c-5.66-19.72-21.3-35-41.15-40.19l-8.02-2.1,10.73,195.37Z"/>
            <path class="cls-7" d="m343.22,551.2c-3.48,0-7.09-.42-10.85-1.25-.22-.05-.39-.24-.4-.47l-1.13-20.48c-.01-.28.2-.52.48-.54,0,0,.02,0,.03,0,.27,0,.49.21.51.48l1.1,20.1c7.63,1.63,14.58,1.51,21.22-.36.28-.07.55.08.63.35.08.27-.08.55-.35.63-3.64,1.03-7.37,1.54-11.24,1.54Z"/>
            <path class="cls-7" d="m399.25,495.61c-.22,0-.43-.15-.49-.37l-14.17-49.37c-.08-.27.08-.55.35-.63.28-.08.55.08.63.35l14.17,49.37c.08.27-.08.55-.35.63-.05.01-.1.02-.14.02Z"/>
            <path class="cls-7" d="m378.49,423.26c-.22,0-.43-.15-.49-.37l-7.57-26.38c-.08-.27.08-.55.35-.63.27-.08.55.08.63.35l7.57,26.38c.08.27-.08.55-.35.63-.05.01-.1.02-.14.02Z"/>
          </g>
          <g>
            <path class="cls-3" d="m273.07,277.14l8.9-3.09c10.83-3.76,17.93-14.16,17.49-25.62l-.48-12.38,12.81-20.01c4.95-7.73,5.05-17.61.25-25.43-4.92-8.02-14.09-12.42-23.43-11.23l-10.06,1.28-67.26-.48c-20.36,20.2-32.65,55.19-38.8,77.44-3.44,12.43-10.51,23.59-20.47,31.79-8.02,6.59-14.53,13.46-19.71,20.41l115.15,17.67,25.61-50.34Z"/>
            <polygon class="cls-20" points="204.48 205.84 229.58 324.73 247.46 327.48 257.18 308.37 204.48 205.84"/>
            <polygon class="cls-20" points="298.98 236.05 298 210.91 303.55 228.9 298.98 236.05"/>
            <path class="cls-7" d="m299.46,248.94c-.27,0-.5-.22-.51-.49l-1.46-37.52c-.01-.28.21-.52.49-.53.33-.01.52.21.53.49l1.46,37.52c.01.28-.21.52-.49.53h-.02Z"/>
            <path class="cls-7" d="m199.49,287.23c-.1,0-.2-.03-.28-.09-7.89-5.31-14.23-13.08-17.87-21.87-.11-.26.02-.56.28-.67.26-.11.56.02.67.28,3.56,8.61,9.77,16.21,17.49,21.41.23.16.3.47.14.71-.1.15-.26.23-.42.23Z"/>
          </g>
          <g>
            <g>
              <polygon class="cls-15" points="270.53 189.26 270.53 203.4 285.76 160.21 265.74 140.39 250.13 166.92 270.53 189.26"/>
              <path class="cls-7" d="m265.74,140.39c3.66,25.65,9.61,27.85,16.45,29.95l3.57-10.13-20.02-19.83Z"/>
            </g>
            <polygon class="cls-3" points="247.09 163.58 270.53 189.26 256.12 212.03 239.04 175.51 247.09 163.58"/>
            <polygon class="cls-3" points="270.53 203.4 283.99 187.81 277.73 182.99 270.53 203.4"/>
            <polygon class="cls-20" points="283.99 187.81 285.76 206.93 276.78 196.15 283.99 187.81"/>
            <path class="cls-7" d="m256.12,212.54s-.02,0-.03,0c-.19-.01-.35-.12-.43-.29l-11.65-24.92c-.12-.26,0-.56.25-.68.25-.12.56-.01.68.25l11.25,24.07,13.7-21.65-21.67-23.75c-.19-.21-.18-.53.03-.72.21-.19.53-.17.72.03l21.94,24.04c.16.17.18.42.05.62l-14.41,22.77c-.09.15-.26.24-.43.24Z"/>
            <path class="cls-7" d="m272.17,202.01c-.12,0-.24-.04-.33-.12-.21-.18-.24-.51-.05-.72l11.47-13.28-4.31-3.32c-.22-.17-.27-.49-.09-.72.17-.22.49-.26.72-.09l4.74,3.65c.11.09.18.21.2.35.01.14-.03.28-.12.39l-11.82,13.69c-.1.12-.24.18-.39.18Z"/>
            <path class="cls-7" d="m285.76,207.44c-.15,0-.29-.06-.39-.18l-8.97-10.78c-.18-.22-.15-.54.06-.72.22-.18.54-.15.72.06l7.92,9.51-1.62-17.49c-.03-.28.18-.53.46-.55.27-.02.53.18.55.46l1.77,19.12c.02.22-.11.43-.31.52-.06.03-.13.04-.2.04Z"/>
          </g>
          <g>
            <path class="cls-15" d="m326.78,128.67c3.23-17.71,5.17-35.24,3.01-45.77-3.09,12.59-22.1,25.9-46.1,30.66l-5.45,9.8c-1.84,3.31-4.91,5.77-8.54,6.84l-2.41.71-2.14,8.56s2.71,6.73,8.06,15.21c13.09,20.72,44.71,15.38,50.02-8.55.07-.3.13-.61.2-.91l3.48.25c1.31.09,2.37-1.06,2.16-2.35l-2.29-14.43Z"/>
            <g>
              <path class="cls-15" d="m269.26,122.5c-1.39-4.22-4.27-8.1-8.33-9.89-4.06-1.79-9.32-1.09-12.23,2.27-2.11,2.44-2.75,5.91-2.31,9.11.44,3.2,1.85,6.19,3.43,9,1.42,2.53,3.03,5.01,5.25,6.87,4.37,3.67,11.49,3.69,14.64-1.67,2.35-4,.88-11.68-.45-15.71Z"/>
              <path class="cls-1" d="m262.09,136.75c-1.17,0-2.43-.46-3.35-1.24-1.62-1.36-2.91-3.44-3.95-5.3-1.17-2.09-2.42-4.55-2.75-6.99-.26-1.85.12-3.62.97-4.61.68-.79,1.91-1.26,3.29-1.26.82,0,1.62.16,2.32.47,2.26,1,4.21,3.42,5.22,6.46,1.53,4.63,1.76,9.64.95,11.02-.21.36-.85,1.44-2.7,1.44h0Z"/>
            </g>
            <g>
              <g>
                <path class="cls-7" d="m310.39,112.99c-4.11,0-7.76,1.97-10.07,5.01h20.15c-2.31-3.04-5.96-5.01-10.07-5.01Z"/>
                <path class="cls-7" d="m313.2,124.8c0,1.55-1.26,2.8-2.8,2.8s-2.8-1.26-2.8-2.8,1.25-2.8,2.8-2.8,2.8,1.25,2.8,2.8Z"/>
              </g>
              <path class="cls-3" d="m316.72,150.61c-7.18-1.59-14.49-2.54-21.84-2.83,1.23,4.33,5.16,8.16,9.6,8.86,4.44.7,9.75-2.29,12.24-6.03Z"/>
              <path class="cls-7" d="m327.06,145.97c-.06,0-.12,0-.19,0l-6.44-.46c-.28-.02-.49-.26-.47-.54.02-.28.29-.5.54-.47l6.44.46c.46.03.92-.14,1.24-.49.32-.35.46-.81.38-1.28l-1.22-7.66c-.04-.28.15-.54.42-.58.28-.04.54.15.58.42l1.22,7.66c.12.77-.11,1.55-.64,2.12-.49.53-1.16.82-1.87.82Z"/>
            </g>
          </g>
          <g>
            <g>
              <path class="cls-15" d="m320.91,572.22c-.11-.07-.23-.14-.34-.21l-10.87-7.24,13.59-54.96-34.79-3.53-10.6,54.57-3.13,18.59h41.83c.77-2.73,2.3-5.21,4.31-7.21Z"/>
              <path class="cls-7" d="m332.95,575.76h0c-4.27,0-8.45-1.24-12.04-3.54-2.01,2-3.54,4.48-4.31,7.21h-41.83l-1.89,11.24h81.11c-3.1-8.82-11.46-14.92-21.04-14.92Z"/>
              <path class="cls-2" d="m353.99,590.68h-81.11l-.86,5.1h83.23l-.39-2c-.21-1.07-.51-2.1-.87-3.11Z"/>
              <path class="cls-7" d="m283.44,532.35c13.7,8.67,32.45,7.41,32.45,7.41l7.41-29.96-34.79-3.53-5.07,26.08Z"/>
            </g>
            <g>
              <path class="cls-14" d="m320.38,338.67l-72.92-11.19-115.15-17.67c-32.85,44.11-11.17,91.39,30.31,91.39h132.95l-38.21,107.59c6.45,5.47,12.47,11.62,20.21,15.03,7.74,3.4,16.96,4.42,24.56.72,2.98-1.45,5.63-3.57,8.76-4.67,5.05-1.76,10.58-.62,15.84.28,5.27.9,11.03,1.46,15.64-1.25l17.53-127.24c3.51-25.5-14.08-49.09-39.52-53Z"/>
              <path class="cls-7" d="m334.01,521.4c-2.42,0-4.92-.33-7.37-.75l-1.03-.18c-4.9-.85-9.97-1.73-14.56-.13-.27.09-.56-.05-.65-.31-.09-.27.05-.56.31-.65,4.84-1.69,10.04-.79,15.07.09l1.03.18c5.26.9,10.72,1.39,15.08-1.06l17.5-126.99c3.45-25.07-14.08-48.58-39.09-52.42-.28-.04-.47-.3-.43-.58.04-.28.3-.47.58-.43,25.56,3.92,43.48,27.95,39.95,53.57l-17.54,127.24c-.02.15-.11.29-.25.37-2.61,1.54-5.56,2.06-8.62,2.06Z"/>
              <path class="cls-7" d="m295.57,401.7h-80.63c-.28,0-.51-.23-.51-.51s.23-.51.51-.51h80.63c.28,0,.51.23.51.51s-.23.51-.51.51Z"/>
              <path class="cls-7" d="m295.57,401.19l8.64-24.33-6.96,4.95c-6.15,4.38-9.12,11.99-7.57,19.38h5.89Z"/>
              <path class="cls-7" d="m257.36,509.3c-.06,0-.11,0-.17-.03-.27-.09-.4-.39-.31-.65l50.33-141.72c.09-.27.39-.4.65-.31.27.09.4.39.31.65l-50.33,141.72c-.07.21-.27.34-.48.34Z"/>
              <path class="cls-7" d="m308.23,511.09s-.06,0-.09,0c-.28-.05-.47-.31-.42-.59l13.52-80.58c.05-.28.32-.46.59-.42.28.05.47.31.42.59l-13.52,80.58c-.04.25-.26.43-.5.43Z"/>
            </g>
          </g>
          <g>
            <g>
              <polygon class="cls-15" points="305.15 278.94 347.2 257.18 357.6 270.92 310.98 314.94 305.15 278.94"/>
              <path class="cls-15" d="m347.2,257.18c.59-23.75,15.51-37.88,19.24-41.22h0c2.64,2,3.46,5.55,2.09,8.57-3.29,7.28-4.06,15.97-4.06,15.97,14.05-2.03,33.43-13.98,40.78-18.8,1.71-1.12,3.98-.73,5.24.88h0c1.19,1.52,1.08,3.67-.23,5.09-6.55,7.15-20.86,15.77-20.86,15.77,10.41-2.46,19.47-7.22,24.01-9.87,1.76-1.03,4.02-.5,5.15,1.2h0c1.06,1.59.8,3.7-.6,5-6.69,6.18-21.15,12.48-25.12,12.99,7.25-.33,15.16-2.69,19.57-4.21,1.92-.66,4,.39,4.6,2.34h0c.49,1.62-.2,3.35-1.67,4.18-8.01,4.5-25.74,6.92-25.74,6.92,8.77.73,15.24.78,18.8.72,1.71-.03,3.08,1.37,3.04,3.08h0c-.03,1.36-.97,2.55-2.3,2.86-23.64,5.52-51.54,2.26-51.54,2.26l-10.4-13.74Z"/>
              <polygon class="cls-1" points="305.15 278.94 310.98 314.94 319.64 306.76 306.89 278.04 305.15 278.94"/>
            </g>
            <polygon class="cls-3" points="312.35 323.35 304.39 274.29 288.06 281.34 296.02 330.39 312.35 323.35"/>
            <g>
              <path class="cls-7" d="m341.77,286.38c-.14,0-.27-.05-.37-.16-.19-.2-.19-.53.02-.72l15.83-14.94c.21-.19.53-.18.72.02.19.2.19.53-.02.72l-15.83,14.94c-.1.09-.23.14-.35.14Z"/>
              <path class="cls-7" d="m377.02,272.37c-11.16,0-19.33-.93-19.48-.94-.28-.03-.48-.29-.45-.57.03-.28.28-.47.57-.45.28.03,28.09,3.18,51.37-2.25,1.09-.25,1.88-1.23,1.9-2.38.02-.69-.24-1.34-.73-1.83-.48-.48-1.16-.75-1.8-.73-.27,0-.51-.22-.52-.5,0-.28.22-.51.5-.52.98.01,1.86.35,2.54,1.03.68.69,1.04,1.6,1.02,2.57-.04,1.61-1.14,2.99-2.69,3.35-10.84,2.53-22.65,3.21-32.24,3.21Z"/>
              <path class="cls-7" d="m389.6,262.5c-.25,0-.47-.19-.51-.44-.04-.28.16-.54.44-.57.18-.02,17.73-2.46,25.56-6.86,1.27-.72,1.86-2.19,1.43-3.59-.24-.8-.79-1.46-1.54-1.84-.75-.38-1.61-.44-2.4-.17-.26.09-.56-.05-.65-.32-.09-.27.05-.56.32-.65,1.06-.37,2.2-.29,3.2.22,1,.51,1.73,1.38,2.06,2.45.57,1.86-.22,3.83-1.91,4.78-8,4.49-25.19,6.88-25.92,6.98-.02,0-.05,0-.07,0Z"/>
              <path class="cls-7" d="m392.83,253.27c-.25,0-.47-.19-.51-.44-.04-.28.16-.53.44-.57,3.58-.47,18.1-6.63,24.84-12.86,1.23-1.13,1.45-2.96.52-4.34-.98-1.48-2.95-1.93-4.47-1.04-.24.14-.56.06-.7-.18-.14-.24-.06-.55.18-.7,1.99-1.16,4.55-.57,5.83,1.36,1.2,1.8.91,4.18-.68,5.66-6.64,6.14-21.11,12.57-25.4,13.13-.02,0-.04,0-.07,0Z"/>
              <path class="cls-7" d="m389.4,243.95c-.17,0-.34-.09-.44-.25-.15-.24-.07-.55.17-.7.14-.09,14.33-8.66,20.75-15.68,1.14-1.25,1.23-3.11.2-4.43-1.1-1.42-3.05-1.75-4.56-.77-.23.15-.55.09-.71-.15-.16-.24-.09-.55.15-.71,1.91-1.25,4.51-.82,5.92.99,1.33,1.71,1.23,4.13-.25,5.75-6.52,7.12-20.83,15.78-20.98,15.86-.08.05-.17.07-.26.07Z"/>
              <path class="cls-7" d="m364.47,241.01s-.03,0-.05,0c-.28-.02-.49-.27-.46-.55,0-.09.81-8.86,4.1-16.13,1.28-2.84.49-6.11-1.94-7.95-.22-.17-.27-.49-.1-.72.17-.22.49-.27.72-.1,2.8,2.13,3.73,5.91,2.25,9.18-3.22,7.11-4,15.72-4.01,15.8-.02.26-.24.47-.51.47Z"/>
            </g>
            <g>
              <path class="cls-3" d="m204.48,205.84l37.54,115.22c6.17,18.95,29.38,25.9,44.95,13.46l8.6-6.87-7.07-43.58-8.55,4.36-28.8-97.12c-3.96-13.34-18.24-20.69-31.4-16.16h0c-12.61,4.35-19.41,18-15.28,30.68Z"/>
              <path class="cls-20" d="m279.96,288.43l-22.78,11.62,1.89-4.44c3.3-7.76,11.5-12.24,19.81-10.83h0l1.08,3.65Z"/>
            </g>
            <path class="cls-7" d="m279.96,288.95c-.22,0-.42-.14-.49-.36l-27.01-91.07c-.08-.27.07-.55.34-.63.28-.08.55.07.63.34l27.01,91.07c.08.27-.07.55-.34.63-.05.01-.1.02-.15.02Z"/>
            <path class="cls-7" d="m257.18,300.57c-.19,0-.36-.1-.45-.28-.13-.25-.03-.56.22-.69l31.33-15.98c.25-.12.56-.03.69.22.13.25.03.56-.22.69l-31.33,15.98c-.07.04-.15.06-.23.06Z"/>
            <path class="cls-7" d="m296.02,330.9c-.25,0-.46-.18-.5-.43l-7.95-49.05c-.05-.28.14-.54.42-.58.27-.05.54.14.58.42l7.95,49.05c.05.28-.14.54-.42.58-.03,0-.05,0-.08,0Z"/>
            <path class="cls-7" d="m269.13,341.42c-2.79,0-5.61-.41-8.39-1.24-9.24-2.75-16.28-9.57-19.31-18.73l-34.89-107.66c-.09-.27.06-.56.33-.64.27-.09.56.06.64.33l34.89,107.66c2.92,8.83,9.71,15.42,18.63,18.07,8.92,2.65,18.21.84,25.48-4.97.2-.2.5-.18.7.02.2.2.18.54-.02.74-5.3,4.23-11.59,6.43-18.06,6.43Z"/>
            <path class="cls-7" d="m251.16,191.83c-.22,0-.42-.14-.49-.36-2.79-9.42-11.25-16.28-21.05-17.06-3.28-.26-6.54.15-9.69,1.24-.26.09-.56-.05-.65-.32-.09-.27.05-.56.32-.65,3.28-1.13,6.68-1.57,10.11-1.29,10.21.82,19.03,7.96,21.95,17.79.08.27-.07.55-.34.63-.05.01-.1.02-.15.02Z"/>
          </g>
        </g>
      </g>
    </g>
  </g>
  <path class="cls-19" d="m572.66,53.96c-4.92-5.81-10.37-11.45-16.94-15.34-1.67-2.66-3.88-5.06-6.51-7.05-7.46-5.64-20.11-10.52-29.41-7.14-2.71.98-4.88,2.77-6.55,5.06-.55.05-1.1.12-1.66.22-6.94,1.18-18.15,5.1-19.39,13.11-.82,5.29,1.31,10.84,4.44,15.52.15,6,2.26,12.07,4.58,17.46,1.28,2.98,2.72,5.73,4.42,8.18-7.16.95-14.61,3.64-21.6,1.43-6.97-2.21-8.31-10.34-14.84-13.21-12.77-5.62-22.71,6.41-31.84,13.07-7.5,5.47-16.13,5.61-23.49-.29-6.69-5.36-10.13-13.83-12.46-21.84-2.68-9.21-1.4-27.01-13.03-29.97-.04-6.61-2.21-13.16-5.91-19-2.71-4.27-6.15-8.73-10.57-11.32C367.09,0,361.08-.22,355.64.12c-8.46.53-22.81,2.85-24.14,13.27-.03.24.03.42.12.57-1.66,3.71-2.37,7.94-2.33,12.29.11,10.52,3.15,20.02,10.17,27.93,5.89,6.64,13.71,12.29,23.03,10.91,10.47-1.55,19.14-10.26,23.31-19.6,1.5-3.35,2.31-6.79,2.53-10.23,8.71,2.53,8.09,15.68,9.68,22.98,1.48,6.78,3.7,13.65,7.23,19.67,5.57,9.47,16.58,17.03,27.74,12.34,6.05-2.54,10.46-7.72,15.61-11.59,7.6-5.71,18.42-8.93,25.05.02,3.66,4.94,6.43,8.5,12.93,9.38,6.9.94,13.68-1.54,20.52-2.16.53.65,1.1,1.26,1.69,1.85.11,1.43.58,2.91,1.04,4.09,8.42,21.64,39.72,14.84,50.98-.18,4.33-5.78,6.58-13.34,5.18-20.25,1.75-4.09,2.47-8.55,1.57-13.18-.8-4.09-2.87-7.45-5.69-10.07-.31-.68-.63-1.36-.98-2.03-.34-.64-.7-1.26-1.07-1.87,4.09,3.18,7.81,7,11.35,11.18.87,1.03,2.35-.46,1.49-1.49Zm-228.42-4.98c-6.33-5.77-9.98-13.19-9.22-21.82.28-3.21.6-6.72,1.64-9.87,1.78-4.1,4.78-7.54,9.23-9.63.15-.07.26-.16.35-.26,1.12-.46,2.28-.84,3.46-1.13,16.55-4.07,33.18,8.83,32.73,26.05-.32,12.11-9.5,22.07-20.02,24.3-6.72-.11-13.12-3.05-18.16-7.64Zm6.53,6.75c-2.24-.88-4.42-2.21-6.46-4.04,2.01,1.59,4.18,2.94,6.46,4.04Zm31.29-12.7c.9-2,1.53-4.05,1.91-6.11-.04.64-.09,1.27-.18,1.91-.9,6.83-4.97,12.38-10.79,15.38,3.76-2.71,6.94-6.47,9.05-11.17Zm-10.13-37.2c-.74-.44-1.49-.84-2.27-1.18-2.15-.93-4.48-1.69-6.9-2.24,3.48.49,6.5,1.66,9.18,3.43Zm-.62,53.61c-16.01,10.36-33.88-4.73-38.22-20.58-2.06-7.52-3.07-17.56.59-24.77,3.65-7.19,11.32-10.28,18.99-10.5-6.35.7-12.73,3.38-16.1,8.67-1.74,2.72-2.91,6.25-3.51,10.01-1.67,9.32.94,20.06,6.2,27,6.1,8.06,14.92,10.86,23.18,9.42,5.78.2,11.53-1.56,16.41-5.9-2.07,2.49-4.59,4.73-7.54,6.64Zm191.83,5.11c-.31-.47-.64-.93-1-1.37-.82-1.02-1.72-1.98-2.68-2.9.58-2.47.75-4.99.41-7.43-.15-1.04-.39-2.06-.71-3.06-.01-.51-.04-1.02-.1-1.52.3.24.59.48.88.74,2.22,4.91,3.35,10.28,3.19,15.55Zm-3.15,12.57c-.4.51-.82,1.01-1.25,1.5-.02-1.17-.2-2.4-.56-3.69-.6-2.13-1.58-4.02-2.83-5.67,1.46-2.06,2.64-4.33,3.45-6.7,1.65,1.7,3.04,3.57,4.02,5.65-.46,3.09-1.38,6.1-2.82,8.91Zm-42.07,14.2c-1.1-1.08-2.12-2.4-3.03-4-.45-.8-.89-1.63-1.32-2.46,1.81-.25,4.37,1.01,6.23.92,1.14-.06,2.21-.33,3.28-.74.3-.11.59-.26.89-.4,1.49.08,2.99-.04,4.5-.32,5.13,2.89,10.8,5.03,16.54,5.14-2.26,1.27-4.61,2.41-7.03,3.33-6.7,1.38-13.81.95-20.05-1.48Zm38.54-10.3c-2.22,2.18-4.62,4.1-6.97,5.68-.06.04-.12.08-.19.12-3.93.77-8.67.2-12.18-.95-1.9-.62-3.78-1.41-5.63-2.32,2.29-.75,4.56-1.85,6.76-3.2,1.41-.5,2.78-1.14,4.08-1.92,1.19-.18,2.43-.55,3.74-1.17,3.01-1.42,5.74-3.64,7.98-6.34,1.04,1.47,1.84,3.21,2.3,5.27.42,1.88.43,3.47.11,4.81Zm-50.14-24c.05.35.1.7.15,1.04.19,1.19.47,2.34.81,3.46-.19,1.5-.27,3-.21,4.49-.52-2.99-.8-6.01-.75-8.99Zm50.8-6.8c.02.07.04.15.06.22-.05,2.23-.52,4.5-1.33,6.75-6.68-5.11-15.06-8.85-21.89-12.81-.19-.11-.38-.22-.56-.33,7.06-.96,15.02-1.11,21.41,1.69.96,1.31,1.75,2.8,2.3,4.48Zm-47.75,10.86c.3-2.14.86-4.33,1.66-6.45,1.21,3.1,2.97,5.82,5.27,7.81.14,3.34.78,6.67,2.18,9.68-1.13-.23-2.29-.59-3.45-1.07-2.52-2.97-4.49-6.28-5.66-9.97Zm1.39,7.77c-.47-.29-.94-.59-1.4-.91-.09-.59-.16-1.2-.2-1.83.49.94,1.02,1.85,1.6,2.74Zm19.33-13.78c-1.87,1.36-3.44,3.16-4.5,5.37-.1.21-.18.42-.27.64-1.03-2.34-1.43-4.89-.49-7.91.85-2.76,2.64-5.24,4.88-7.3.35,2.96.4,6.11.39,9.2Zm10.49,21.51c-2.94.18-5.61-1.25-7.2-5.5-.7-1.86-1.08-3.76-1.29-5.68,1.73-.24,3.46-.52,5.17-.69,4.4-.43,8.83.22,12.36,2.24-.12.51-.29,1.03-.51,1.55-2.61,3.13-5.59,5.91-8.53,8.08Zm-12.35,2.29c-.21-.08-.42-.14-.62-.23-1.97-.89-3.56-2.16-4.84-3.66.12-.03.25-.05.37-.09,2.07-.68,2.72-2.54,3.02-4.51.17-1.12.14-2.26.14-3.39,1.24,1.48,2.77,3.01,3.46,4.56,1.19,2.69.22,5.25-1.53,7.32Zm-9.85-19.14c.09-2.72.34-5.55,1.12-8.18,1.28-4.34,4.22-5.66,7.95-6.48-2.51,2.57-4.36,5.64-5.01,8.93-.67,3.41.15,6.65,1.68,9.62-2.26-.31-4.16-1.11-5.75-2.29,0-.54,0-1.08,0-1.61Zm8.29,3.84c.59-2.23,1.78-4.22,3.4-5.78-.02,2.01-.03,3.96.03,5.77-1.1.12-2.2.19-3.31.2-.04-.06-.08-.13-.12-.19Zm-4.25,1.96c.58.12,1.17.2,1.75.26-.25,3.33.36,6.4-3.18,6.57-1.37-2.51-2.14-5.4-2.46-8.33,1.19.68,2.48,1.2,3.89,1.49Zm5.82.29c.66-.05,1.31-.11,1.97-.19.04.51.08,1.02.14,1.5.08.67.21,1.32.36,1.96-.81-1.1-1.66-2.18-2.47-3.26Zm21.66-1.22c-2.55-1.38-5.46-2.17-8.51-2.21-3.17-.05-6.3.52-9.44.95-.1-2.35.02-4.73.16-7.12.71-.44,1.46-.83,2.26-1.12,7.63-2.75,15.5,2.52,15.54,9.51Zm-30.55-17.67c-2.42,3.17-3.01,8.21-3.09,12.41-1.82-2.15-3.04-4.93-3.74-8.04,1.16-2.22,2.59-4.24,4.26-5.84,3.14-3.01,6.44-3.32,9.72-2.4-2.76.6-5.41,1.6-7.15,3.88Zm.8,28.05c.14.2.26.4.41.59,1.8,2.34,3.91,3.9,6.15,4.82-.11.09-.22.19-.33.27-2.8-1.79-5.45-3.82-7.81-5.96-.06-.06-.12-.11-.18-.17.59.19,1.18.34,1.75.44Zm8.81,6.12c.56.12,1.13.21,1.7.27-.8.18-1.6.3-2.39.38.24-.21.47-.44.7-.66Zm1.54-1.6c.75-.86,1.41-1.74,1.95-2.6.5-.8.78-1.44.9-2.04,1.28,1.64,2.92,2.82,4.84,3.37-.29.18-.57.36-.86.52-.07.04-.14.08-.22.12-2.18.7-4.44.97-6.61.63Zm20.66-10.7c.14-.18.28-.36.42-.53.36.29.71.61,1.04.94-1.11,1.3-2.47,2.62-3.97,3.77,1.05-1.32,1.9-2.73,2.51-4.18Zm-4.16-13.99c-4.5-3.19-10.18-3.3-14.76-1.05.14-2.74.2-5.47-.1-8.17,2,1.16,3.95,2.46,5.81,3.54,5.07,2.96,11.72,6.03,17.08,10.12-.78,1.75-1.74,3.46-2.84,5.13.14-3.45-1.35-6.85-5.19-9.58Zm-.24-13.31c-3.48-.42-6.96-.3-10.43.07.78-.34,1.57-.64,2.35-.89,4.63-1.44,9.22-.67,12.77,1.78-1.54-.44-3.11-.77-4.68-.96Zm-26.63-.72c-3.58,1.23-6.22,4.29-8.16,7.5-.45-3.15-.54-6.45-.06-9.59,4.27-1.89,9.13-2.9,13.92-3.34,1.5,1.7,2.47,3.86,3.11,6.3-2.77-1.26-5.68-1.94-8.81-.87Zm-.7-6.57c-1.78.35-3.57.84-5.32,1.44.13-.14.25-.29.38-.43.41-.29.84-.56,1.3-.81,1.65-.9,3.38-1.63,5.15-2.2,1.03.33,1.94.76,2.75,1.29-1.44.2-2.87.43-4.26.71Zm-10.34,9.46c-.02,2.75.32,5.52,1.02,8.13-.68,1.48-1.26,3.03-1.74,4.62-.02-.13-.04-.27-.05-.4-.38-3.67-.44-7.65.35-11.3.14-.35.28-.7.43-1.05Zm3.32,28.19c.3.15.64.31.98.49,2.24,2.62,4.84,4.98,7.61,7.07,1.06.8,2.17,1.59,3.32,2.36-6.57-.62-12.27-4.53-14.37-11.22.8.46,1.62.9,2.45,1.3Zm41.46-4.29c-.34-.34-.69-.66-1.05-.97,1.49-2.06,2.76-4.12,3.76-6.09.17.14.34.29.51.44-.67,2.24-1.71,4.38-3.01,6.34-.06.09-.13.19-.2.29Zm3.76-8.94s-.09-.07-.13-.1c0-.02.02-.04.03-.06.09-.2.15-.41.23-.62-.04.26-.08.52-.13.78Zm-13.95-20.96c-4.06.02-8.5,1.59-12.28,4.14-.22-.78-.46-1.56-.78-2.33-.67-1.64-1.54-3.07-2.55-4.3,3.22-.18,6.37-.12,9.23.09,6.54.48,12.21,2.45,17.3,5.44.03.03.05.06.08.08.59,1.05,1.08,2.16,1.48,3.32-2.97-3.84-7.4-6.47-12.47-6.44Zm-17.52-4.45c-.78-.67-1.63-1.25-2.52-1.74,7.92-1.78,16.5-.52,23.53,3.39-6.65-2-13.99-2.35-21-1.65Zm-10.92-1.71c-.61.54-1.2,1.11-1.76,1.7.28-.58.58-1.14.91-1.65.28-.02.57-.04.85-.05Zm-8.83,13.24c-2.28,6.31-2.59,13.05-1.63,19.66-.82-.73-1.59-1.45-2.28-2.15-1.35-1.38-2.64-2.93-3.79-4.6,0-2.07.28-4.13.92-6.14,1.43-4.49,4.19-7.82,7.7-10.28-.39,1.13-.7,2.31-.92,3.51Zm5.25,33.49c1.91,2.22,3.97,3.8,6.11,4.85-1.82-.27-3.63-.64-5.26-.35-1.24-2.6-2.34-5.33-3.27-8.13.65,1.27,1.44,2.5,2.42,3.64Zm1.68,10.8c-.83-.55-1.6-1.15-2.32-1.8.08-.51.27-.96.59-1.34.53,1.08,1.1,2.14,1.73,3.15Zm32.04-57.55c-1.64-.7-3.36-1.27-5.16-1.7-5.88-1.38-12.91-1.52-19.18.19,2.17-1.23,4.53-2.15,7.08-2.68.8-.17.9-.97.57-1.52.28.03.55.05.83.09,5.28.73,11,2.61,15.86,5.62Zm-19.47-5.81c-3,.83-5.75,2.16-8.21,3.9-.5-.07-1.01-.11-1.53-.14,2.53-2.45,5.94-3.65,9.74-3.76Zm-14.11,6.17c-.71,1.36-1.28,2.83-1.71,4.38-.46.56-.89,1.14-1.26,1.77-4.55,2.51-8.41,6.13-10.52,11.07-.77,1.79-1.23,3.63-1.47,5.49-1.44-2.75-2.42-5.71-2.62-8.73-.54-8.18,10.17-12.77,17.59-13.98Zm-9.35,41.52c-1.51-3.73-2.91-7.78-3.48-11.88,1.01,1.21,2.07,2.34,3.13,3.33,1.02.96,2.1,1.84,3.22,2.69.65,3.21,1.56,6.37,2.65,9.41.75,2.09,1.57,4.36,2.54,6.61-.3.21-.56.44-.78.69-.15-.3-.43-.52-.88-.5-.32.01-.64.04-.95.06-2.3-3.12-3.97-6.76-5.45-10.41Zm37.86,29.14c-6.28,1.74-13.28,1.69-19.15-1.38-2.88-1.5-5.52-3.69-7.39-6.35-.61-.86-1.8-2.81-2.42-4.76,1.47,1.11,3.09,2.06,4.9,2.84,2.33,2.44,5.24,4.15,8.97,4.48,4.83.42,9.86-.76,14.65-2.76,2.51-.58,4.95-1.41,7.26-2.5,2.92-1.39,5.49-3.12,7.71-5.12.73-.54,1.36-1.16,1.9-1.85,1.58-1.69,2.94-3.52,4.08-5.47,1.33-1.57,2.54-3.25,3.57-5.02.66,13.94-11.62,24.45-24.06,27.89Zm24.71-34.35c-.05-.13-.12-.26-.18-.39.59-4.35.33-8.88-.79-13.31,2.36,4.65,2.38,9.32.96,13.71Z"/>
</svg>